<?xml version="1.0" encoding="utf-8"?>
<!-- Generator: Adobe Illustrator 28.1.0, SVG Export Plug-In . SVG Version: 6.00 Build 0)  -->
<svg version="1.1" id="Слой_1" xmlns="http://www.w3.org/2000/svg" xmlns:xlink="http://www.w3.org/1999/xlink" x="0px" y="0px"
	 viewBox="0 0 1366 768" style="enable-background:new 0 0 1366 768;" xml:space="preserve">
<style type="text/css">
	.st0{fill:#E6E6E6;}
	.st1{fill:#FFFFFF;}
	.st2{fill:#E6E6E6;stroke:#000000;stroke-width:10;stroke-miterlimit:10;}
	.st3{fill:#FFFFFF;stroke:#000000;stroke-width:6;stroke-miterlimit:10;}
	.st4{fill:#FFFFFF;stroke:#000000;stroke-width:8;stroke-miterlimit:10;}
	.st5{fill:#E6E6E6;stroke:#E6E6E6;stroke-miterlimit:10;}
</style>
<g>
	<path class="st0" d="M472,469c-0.3,0-0.5-0.2-0.5-0.5v-246c0-0.3,0.2-0.5,0.5-0.5h382.7c0.3,0,0.5,0.2,0.5,0.5v246
		c0,0.3-0.2,0.5-0.5,0.5H472z"/>
	<path d="M850.2,227v237H476.5V227H850.2 M854.7,217H472c-3,0-5.5,2.5-5.5,5.5v246c0,3,2.5,5.5,5.5,5.5h382.7c3,0,5.5-2.5,5.5-5.5
		v-246C860.2,219.5,857.7,217,854.7,217L854.7,217z"/>
</g>
<g>
	<polygon class="st1" points="470.3,475 854.9,475 900.4,516.3 422.7,517 	"/>
	<path d="M854.5,476l31.8,28.8l11.6,10.5l-236.3,0.3L425.3,516l45.4-40H854.5 M855.3,474c-128.5,0-256.9,0-385.4,0
		c-16.6,14.7-33.3,29.3-49.9,44c161-0.2,322-0.5,483-0.7C887.1,502.9,871.2,488.4,855.3,474L855.3,474z"/>
</g>
<g>
	<polygon points="472.1,502.3 488.4,483.7 834.3,483 854.4,503 	"/>
	<path d="M832.2,488l10,9.9L664,497.7l-180.9-0.3l7.6-8.7l170.6-0.3L832.2,488 M836.4,478c-116.7,0.2-233.5,0.5-350.2,0.7
		c-8.4,9.5-16.8,19.1-25.2,28.6c135.2,0.2,270.4,0.5,405.5,0.7C856.5,498,846.4,488,836.4,478L836.4,478z"/>
</g>
<path class="st2" d="M444-24"/>
<line class="st3" x1="420.9" y1="520" x2="903" y2="520"/>
<line class="st4" x1="474.7" y1="230" x2="852.9" y2="230"/>
<ellipse class="st5" cx="664.7" cy="224.5" rx="3.6" ry="4"/>
</svg>
